<svg width="118" height="151" viewBox="0 0 118 151" fill="none" xmlns="http://www.w3.org/2000/svg">
<ellipse cx="0.981589" cy="1.84543" rx="0.981589" ry="1.73899" fill="#EBEBEB"/>
<ellipse cx="7.0624" cy="1.84543" rx="0.981589" ry="1.73899" fill="#EBEBEB"/>
<ellipse cx="13.1432" cy="1.84543" rx="0.981589" ry="1.73899" fill="#EBEBEB"/>
<ellipse cx="19.2238" cy="1.84543" rx="0.981589" ry="1.73899" fill="#EBEBEB"/>
<ellipse cx="25.3048" cy="1.84543" rx="0.981589" ry="1.73899" fill="#EBEBEB"/>
<ellipse cx="31.3854" cy="1.84543" rx="0.981589" ry="1.73899" fill="#EBEBEB"/>
<ellipse cx="37.4662" cy="1.84543" rx="0.981589" ry="1.73899" fill="#EBEBEB"/>
<ellipse cx="43.547" cy="1.84543" rx="0.981589" ry="1.73899" fill="#EBEBEB"/>
<ellipse cx="49.6278" cy="1.84543" rx="0.981589" ry="1.73899" fill="#EBEBEB"/>
<ellipse cx="55.7086" cy="1.84543" rx="0.981589" ry="1.73899" fill="#EBEBEB"/>
<ellipse cx="61.7895" cy="1.84543" rx="0.981589" ry="1.73899" fill="#EBEBEB"/>
<ellipse cx="67.87" cy="1.84543" rx="0.981589" ry="1.73899" fill="#EBEBEB"/>
<ellipse cx="73.9508" cy="1.84543" rx="0.981589" ry="1.73899" fill="#EBEBEB"/>
<ellipse cx="80.0316" cy="1.84543" rx="0.981589" ry="1.73899" fill="#EBEBEB"/>
<ellipse cx="86.1124" cy="1.84543" rx="0.981589" ry="1.73899" fill="#EBEBEB"/>
<ellipse cx="92.1933" cy="1.84543" rx="0.981589" ry="1.73899" fill="#EBEBEB"/>
<ellipse cx="98.2738" cy="1.84543" rx="0.981589" ry="1.73899" fill="#EBEBEB"/>
<ellipse cx="104.355" cy="1.84543" rx="0.981589" ry="1.73899" fill="#EBEBEB"/>
<ellipse cx="110.435" cy="1.84543" rx="0.981589" ry="1.73899" fill="#EBEBEB"/>
<ellipse cx="116.516" cy="1.84543" rx="0.981589" ry="1.73899" fill="#EBEBEB"/>
<ellipse cx="0.981589" cy="11.6413" rx="0.981589" ry="1.73899" fill="#EBEBEB"/>
<ellipse cx="7.0624" cy="11.6413" rx="0.981589" ry="1.73899" fill="#EBEBEB"/>
<ellipse cx="13.1432" cy="11.6413" rx="0.981589" ry="1.73899" fill="#EBEBEB"/>
<ellipse cx="19.2238" cy="11.6413" rx="0.981589" ry="1.73899" fill="#EBEBEB"/>
<ellipse cx="25.3048" cy="11.6413" rx="0.981589" ry="1.73899" fill="#EBEBEB"/>
<ellipse cx="31.3854" cy="11.6413" rx="0.981589" ry="1.73899" fill="#EBEBEB"/>
<ellipse cx="37.4662" cy="11.6413" rx="0.981589" ry="1.73899" fill="#EBEBEB"/>
<ellipse cx="43.547" cy="11.6413" rx="0.981589" ry="1.73899" fill="#EBEBEB"/>
<ellipse cx="49.6278" cy="11.6413" rx="0.981589" ry="1.73899" fill="#EBEBEB"/>
<ellipse cx="55.7086" cy="11.6413" rx="0.981589" ry="1.73899" fill="#EBEBEB"/>
<ellipse cx="61.7895" cy="11.6413" rx="0.981589" ry="1.73899" fill="#EBEBEB"/>
<ellipse cx="67.87" cy="11.6413" rx="0.981589" ry="1.73899" fill="#EBEBEB"/>
<ellipse cx="73.9508" cy="11.6413" rx="0.981589" ry="1.73899" fill="#EBEBEB"/>
<ellipse cx="80.0316" cy="11.6413" rx="0.981589" ry="1.73899" fill="#EBEBEB"/>
<ellipse cx="86.1124" cy="11.6413" rx="0.981589" ry="1.73899" fill="#EBEBEB"/>
<ellipse cx="92.1933" cy="11.6413" rx="0.981589" ry="1.73899" fill="#EBEBEB"/>
<ellipse cx="98.2738" cy="11.6413" rx="0.981589" ry="1.73899" fill="#EBEBEB"/>
<ellipse cx="104.355" cy="11.6413" rx="0.981589" ry="1.73899" fill="#EBEBEB"/>
<ellipse cx="110.435" cy="11.6413" rx="0.981589" ry="1.73899" fill="#EBEBEB"/>
<ellipse cx="116.516" cy="11.6413" rx="0.981589" ry="1.73899" fill="#EBEBEB"/>
<ellipse cx="0.981589" cy="21.4372" rx="0.981589" ry="1.73899" fill="#EBEBEB"/>
<ellipse cx="7.0624" cy="21.4372" rx="0.981589" ry="1.73899" fill="#EBEBEB"/>
<ellipse cx="13.1432" cy="21.4372" rx="0.981589" ry="1.73899" fill="#EBEBEB"/>
<ellipse cx="19.2238" cy="21.4372" rx="0.981589" ry="1.73899" fill="#EBEBEB"/>
<ellipse cx="25.3048" cy="21.4372" rx="0.981589" ry="1.73899" fill="#EBEBEB"/>
<ellipse cx="31.3854" cy="21.4372" rx="0.981589" ry="1.73899" fill="#EBEBEB"/>
<ellipse cx="37.4662" cy="21.4372" rx="0.981589" ry="1.73899" fill="#EBEBEB"/>
<ellipse cx="43.547" cy="21.4372" rx="0.981589" ry="1.73899" fill="#EBEBEB"/>
<ellipse cx="49.6278" cy="21.4372" rx="0.981589" ry="1.73899" fill="#EBEBEB"/>
<ellipse cx="55.7086" cy="21.4372" rx="0.981589" ry="1.73899" fill="#EBEBEB"/>
<ellipse cx="61.7895" cy="21.4372" rx="0.981589" ry="1.73899" fill="#EBEBEB"/>
<ellipse cx="67.87" cy="21.4372" rx="0.981589" ry="1.73899" fill="#EBEBEB"/>
<ellipse cx="73.9508" cy="21.4372" rx="0.981589" ry="1.73899" fill="#EBEBEB"/>
<ellipse cx="80.0316" cy="21.4372" rx="0.981589" ry="1.73899" fill="#EBEBEB"/>
<ellipse cx="86.1124" cy="21.4372" rx="0.981589" ry="1.73899" fill="#EBEBEB"/>
<ellipse cx="92.1933" cy="21.4372" rx="0.981589" ry="1.73899" fill="#EBEBEB"/>
<ellipse cx="98.2738" cy="21.4372" rx="0.981589" ry="1.73899" fill="#EBEBEB"/>
<ellipse cx="104.355" cy="21.4372" rx="0.981589" ry="1.73899" fill="#EBEBEB"/>
<ellipse cx="110.435" cy="21.4372" rx="0.981589" ry="1.73899" fill="#EBEBEB"/>
<ellipse cx="116.516" cy="21.4372" rx="0.981589" ry="1.73899" fill="#EBEBEB"/>
<ellipse cx="0.981589" cy="31.2334" rx="0.981589" ry="1.73899" fill="#EBEBEB"/>
<ellipse cx="7.0624" cy="31.2334" rx="0.981589" ry="1.73899" fill="#EBEBEB"/>
<ellipse cx="13.1432" cy="31.2334" rx="0.981589" ry="1.73899" fill="#EBEBEB"/>
<ellipse cx="19.2238" cy="31.2334" rx="0.981589" ry="1.73899" fill="#EBEBEB"/>
<ellipse cx="25.3048" cy="31.2334" rx="0.981589" ry="1.73899" fill="#EBEBEB"/>
<ellipse cx="31.3854" cy="31.2334" rx="0.981589" ry="1.73899" fill="#EBEBEB"/>
<ellipse cx="37.4662" cy="31.2334" rx="0.981589" ry="1.73899" fill="#EBEBEB"/>
<ellipse cx="43.547" cy="31.2334" rx="0.981589" ry="1.73899" fill="#EBEBEB"/>
<ellipse cx="49.6278" cy="31.2334" rx="0.981589" ry="1.73899" fill="#EBEBEB"/>
<ellipse cx="55.7086" cy="31.2334" rx="0.981589" ry="1.73899" fill="#EBEBEB"/>
<ellipse cx="61.7895" cy="31.2334" rx="0.981589" ry="1.73899" fill="#EBEBEB"/>
<ellipse cx="67.87" cy="31.2334" rx="0.981589" ry="1.73899" fill="#EBEBEB"/>
<ellipse cx="73.9508" cy="31.2334" rx="0.981589" ry="1.73899" fill="#EBEBEB"/>
<ellipse cx="80.0316" cy="31.2334" rx="0.981589" ry="1.73899" fill="#EBEBEB"/>
<ellipse cx="86.1124" cy="31.2334" rx="0.981589" ry="1.73899" fill="#EBEBEB"/>
<ellipse cx="92.1933" cy="31.2334" rx="0.981589" ry="1.73899" fill="#EBEBEB"/>
<ellipse cx="98.2738" cy="31.2334" rx="0.981589" ry="1.73899" fill="#EBEBEB"/>
<ellipse cx="104.355" cy="31.2334" rx="0.981589" ry="1.73899" fill="#EBEBEB"/>
<ellipse cx="110.435" cy="31.2334" rx="0.981589" ry="1.73899" fill="#EBEBEB"/>
<ellipse cx="116.516" cy="31.2334" rx="0.981589" ry="1.73899" fill="#EBEBEB"/>
<ellipse cx="0.981589" cy="41.0293" rx="0.981589" ry="1.73899" fill="#EBEBEB"/>
<ellipse cx="7.0624" cy="41.0293" rx="0.981589" ry="1.73899" fill="#EBEBEB"/>
<ellipse cx="13.1432" cy="41.0293" rx="0.981589" ry="1.73899" fill="#EBEBEB"/>
<ellipse cx="19.2238" cy="41.0293" rx="0.981589" ry="1.73899" fill="#EBEBEB"/>
<ellipse cx="25.3048" cy="41.0293" rx="0.981589" ry="1.73899" fill="#EBEBEB"/>
<ellipse cx="31.3854" cy="41.0293" rx="0.981589" ry="1.73899" fill="#EBEBEB"/>
<ellipse cx="37.4662" cy="41.0293" rx="0.981589" ry="1.73899" fill="#EBEBEB"/>
<ellipse cx="43.547" cy="41.0293" rx="0.981589" ry="1.73899" fill="#EBEBEB"/>
<ellipse cx="49.6278" cy="41.0293" rx="0.981589" ry="1.73899" fill="#EBEBEB"/>
<ellipse cx="55.7086" cy="41.0293" rx="0.981589" ry="1.73899" fill="#EBEBEB"/>
<ellipse cx="61.7895" cy="41.0293" rx="0.981589" ry="1.73899" fill="#EBEBEB"/>
<ellipse cx="67.87" cy="41.0293" rx="0.981589" ry="1.73899" fill="#EBEBEB"/>
<ellipse cx="73.9508" cy="41.0293" rx="0.981589" ry="1.73899" fill="#EBEBEB"/>
<ellipse cx="80.0316" cy="41.0293" rx="0.981589" ry="1.73899" fill="#EBEBEB"/>
<ellipse cx="86.1124" cy="41.0293" rx="0.981589" ry="1.73899" fill="#EBEBEB"/>
<ellipse cx="92.1933" cy="41.0293" rx="0.981589" ry="1.73899" fill="#EBEBEB"/>
<ellipse cx="98.2738" cy="41.0293" rx="0.981589" ry="1.73899" fill="#EBEBEB"/>
<ellipse cx="104.355" cy="41.0293" rx="0.981589" ry="1.73899" fill="#EBEBEB"/>
<ellipse cx="110.435" cy="41.0293" rx="0.981589" ry="1.73899" fill="#EBEBEB"/>
<ellipse cx="116.516" cy="41.0293" rx="0.981589" ry="1.73899" fill="#EBEBEB"/>
<ellipse cx="0.981589" cy="50.8252" rx="0.981589" ry="1.73899" fill="#EBEBEB"/>
<ellipse cx="7.0624" cy="50.8252" rx="0.981589" ry="1.73899" fill="#EBEBEB"/>
<ellipse cx="13.1432" cy="50.8252" rx="0.981589" ry="1.73899" fill="#EBEBEB"/>
<ellipse cx="19.2238" cy="50.8252" rx="0.981589" ry="1.73899" fill="#EBEBEB"/>
<ellipse cx="25.3048" cy="50.8252" rx="0.981589" ry="1.73899" fill="#EBEBEB"/>
<ellipse cx="31.3854" cy="50.8252" rx="0.981589" ry="1.73899" fill="#EBEBEB"/>
<ellipse cx="37.4662" cy="50.8252" rx="0.981589" ry="1.73899" fill="#EBEBEB"/>
<ellipse cx="43.547" cy="50.8252" rx="0.981589" ry="1.73899" fill="#EBEBEB"/>
<ellipse cx="49.6278" cy="50.8252" rx="0.981589" ry="1.73899" fill="#EBEBEB"/>
<ellipse cx="55.7086" cy="50.8252" rx="0.981589" ry="1.73899" fill="#EBEBEB"/>
<ellipse cx="61.7895" cy="50.8252" rx="0.981589" ry="1.73899" fill="#EBEBEB"/>
<ellipse cx="67.87" cy="50.8252" rx="0.981589" ry="1.73899" fill="#EBEBEB"/>
<ellipse cx="73.9508" cy="50.8252" rx="0.981589" ry="1.73899" fill="#EBEBEB"/>
<ellipse cx="80.0316" cy="50.8252" rx="0.981589" ry="1.73899" fill="#EBEBEB"/>
<ellipse cx="86.1124" cy="50.8252" rx="0.981589" ry="1.73899" fill="#EBEBEB"/>
<ellipse cx="92.1933" cy="50.8252" rx="0.981589" ry="1.73899" fill="#EBEBEB"/>
<ellipse cx="98.2738" cy="50.8252" rx="0.981589" ry="1.73899" fill="#EBEBEB"/>
<ellipse cx="104.355" cy="50.8252" rx="0.981589" ry="1.73899" fill="#EBEBEB"/>
<ellipse cx="110.435" cy="50.8252" rx="0.981589" ry="1.73899" fill="#EBEBEB"/>
<ellipse cx="116.516" cy="50.8252" rx="0.981589" ry="1.73899" fill="#EBEBEB"/>
<ellipse cx="0.981589" cy="60.6213" rx="0.981589" ry="1.73899" fill="#EBEBEB"/>
<ellipse cx="7.0624" cy="60.6213" rx="0.981589" ry="1.73899" fill="#EBEBEB"/>
<ellipse cx="13.1432" cy="60.6213" rx="0.981589" ry="1.73899" fill="#EBEBEB"/>
<ellipse cx="19.2238" cy="60.6213" rx="0.981589" ry="1.73899" fill="#EBEBEB"/>
<ellipse cx="25.3048" cy="60.6213" rx="0.981589" ry="1.73899" fill="#EBEBEB"/>
<ellipse cx="31.3854" cy="60.6213" rx="0.981589" ry="1.73899" fill="#EBEBEB"/>
<ellipse cx="37.4662" cy="60.6213" rx="0.981589" ry="1.73899" fill="#EBEBEB"/>
<ellipse cx="43.547" cy="60.6213" rx="0.981589" ry="1.73899" fill="#EBEBEB"/>
<ellipse cx="49.6278" cy="60.6213" rx="0.981589" ry="1.73899" fill="#EBEBEB"/>
<ellipse cx="55.7086" cy="60.6213" rx="0.981589" ry="1.73899" fill="#EBEBEB"/>
<ellipse cx="61.7895" cy="60.6213" rx="0.981589" ry="1.73899" fill="#EBEBEB"/>
<ellipse cx="67.87" cy="60.6213" rx="0.981589" ry="1.73899" fill="#EBEBEB"/>
<ellipse cx="73.9508" cy="60.6213" rx="0.981589" ry="1.73899" fill="#EBEBEB"/>
<ellipse cx="80.0316" cy="60.6213" rx="0.981589" ry="1.73899" fill="#EBEBEB"/>
<ellipse cx="86.1124" cy="60.6213" rx="0.981589" ry="1.73899" fill="#EBEBEB"/>
<ellipse cx="92.1933" cy="60.6213" rx="0.981589" ry="1.73899" fill="#EBEBEB"/>
<ellipse cx="98.2738" cy="60.6213" rx="0.981589" ry="1.73899" fill="#EBEBEB"/>
<ellipse cx="104.355" cy="60.6213" rx="0.981589" ry="1.73899" fill="#EBEBEB"/>
<ellipse cx="110.435" cy="60.6213" rx="0.981589" ry="1.73899" fill="#EBEBEB"/>
<ellipse cx="116.516" cy="60.6213" rx="0.981589" ry="1.73899" fill="#EBEBEB"/>
<ellipse cx="0.981589" cy="70.4172" rx="0.981589" ry="1.73899" fill="#EBEBEB"/>
<ellipse cx="7.0624" cy="70.4172" rx="0.981589" ry="1.73899" fill="#EBEBEB"/>
<ellipse cx="13.1432" cy="70.4172" rx="0.981589" ry="1.73899" fill="#EBEBEB"/>
<ellipse cx="19.2238" cy="70.4172" rx="0.981589" ry="1.73899" fill="#EBEBEB"/>
<ellipse cx="25.3048" cy="70.4172" rx="0.981589" ry="1.73899" fill="#EBEBEB"/>
<ellipse cx="31.3854" cy="70.4172" rx="0.981589" ry="1.73899" fill="#EBEBEB"/>
<ellipse cx="37.4662" cy="70.4172" rx="0.981589" ry="1.73899" fill="#EBEBEB"/>
<ellipse cx="43.547" cy="70.4172" rx="0.981589" ry="1.73899" fill="#EBEBEB"/>
<ellipse cx="49.6278" cy="70.4172" rx="0.981589" ry="1.73899" fill="#EBEBEB"/>
<ellipse cx="55.7086" cy="70.4172" rx="0.981589" ry="1.73899" fill="#EBEBEB"/>
<ellipse cx="61.7895" cy="70.4172" rx="0.981589" ry="1.73899" fill="#EBEBEB"/>
<ellipse cx="67.87" cy="70.4172" rx="0.981589" ry="1.73899" fill="#EBEBEB"/>
<ellipse cx="73.9508" cy="70.4172" rx="0.981589" ry="1.73899" fill="#EBEBEB"/>
<ellipse cx="80.0316" cy="70.4172" rx="0.981589" ry="1.73899" fill="#EBEBEB"/>
<ellipse cx="86.1124" cy="70.4172" rx="0.981589" ry="1.73899" fill="#EBEBEB"/>
<ellipse cx="92.1933" cy="70.4172" rx="0.981589" ry="1.73899" fill="#EBEBEB"/>
<ellipse cx="98.2738" cy="70.4172" rx="0.981589" ry="1.73899" fill="#EBEBEB"/>
<ellipse cx="104.355" cy="70.4172" rx="0.981589" ry="1.73899" fill="#EBEBEB"/>
<ellipse cx="110.435" cy="70.4172" rx="0.981589" ry="1.73899" fill="#EBEBEB"/>
<ellipse cx="116.516" cy="70.4172" rx="0.981589" ry="1.73899" fill="#EBEBEB"/>
<ellipse cx="0.981589" cy="80.2131" rx="0.981589" ry="1.73899" fill="#EBEBEB"/>
<ellipse cx="7.0624" cy="80.2131" rx="0.981589" ry="1.73899" fill="#EBEBEB"/>
<ellipse cx="13.1432" cy="80.2131" rx="0.981589" ry="1.73899" fill="#EBEBEB"/>
<ellipse cx="19.2238" cy="80.2131" rx="0.981589" ry="1.73899" fill="#EBEBEB"/>
<ellipse cx="25.3048" cy="80.2131" rx="0.981589" ry="1.73899" fill="#EBEBEB"/>
<ellipse cx="31.3854" cy="80.2131" rx="0.981589" ry="1.73899" fill="#EBEBEB"/>
<ellipse cx="37.4662" cy="80.2131" rx="0.981589" ry="1.73899" fill="#EBEBEB"/>
<ellipse cx="43.547" cy="80.2131" rx="0.981589" ry="1.73899" fill="#EBEBEB"/>
<ellipse cx="49.6278" cy="80.2131" rx="0.981589" ry="1.73899" fill="#EBEBEB"/>
<ellipse cx="55.7086" cy="80.2131" rx="0.981589" ry="1.73899" fill="#EBEBEB"/>
<ellipse cx="61.7895" cy="80.2131" rx="0.981589" ry="1.73899" fill="#EBEBEB"/>
<ellipse cx="67.87" cy="80.2131" rx="0.981589" ry="1.73899" fill="#EBEBEB"/>
<ellipse cx="73.9508" cy="80.2131" rx="0.981589" ry="1.73899" fill="#EBEBEB"/>
<ellipse cx="80.0316" cy="80.2131" rx="0.981589" ry="1.73899" fill="#EBEBEB"/>
<ellipse cx="86.1124" cy="80.2131" rx="0.981589" ry="1.73899" fill="#EBEBEB"/>
<ellipse cx="92.1933" cy="80.2131" rx="0.981589" ry="1.73899" fill="#EBEBEB"/>
<ellipse cx="98.2738" cy="80.2131" rx="0.981589" ry="1.73899" fill="#EBEBEB"/>
<ellipse cx="104.355" cy="80.2131" rx="0.981589" ry="1.73899" fill="#EBEBEB"/>
<ellipse cx="110.435" cy="80.2131" rx="0.981589" ry="1.73899" fill="#EBEBEB"/>
<ellipse cx="116.516" cy="80.2131" rx="0.981589" ry="1.73899" fill="#EBEBEB"/>
<ellipse cx="0.981589" cy="90.009" rx="0.981589" ry="1.73899" fill="#EBEBEB"/>
<ellipse cx="7.0624" cy="90.009" rx="0.981589" ry="1.73899" fill="#EBEBEB"/>
<ellipse cx="13.1432" cy="90.009" rx="0.981589" ry="1.73899" fill="#EBEBEB"/>
<ellipse cx="19.2238" cy="90.009" rx="0.981589" ry="1.73899" fill="#EBEBEB"/>
<ellipse cx="25.3048" cy="90.009" rx="0.981589" ry="1.73899" fill="#EBEBEB"/>
<ellipse cx="31.3854" cy="90.009" rx="0.981589" ry="1.73899" fill="#EBEBEB"/>
<ellipse cx="37.4662" cy="90.009" rx="0.981589" ry="1.73899" fill="#EBEBEB"/>
<ellipse cx="43.547" cy="90.009" rx="0.981589" ry="1.73899" fill="#EBEBEB"/>
<ellipse cx="49.6278" cy="90.009" rx="0.981589" ry="1.73899" fill="#EBEBEB"/>
<ellipse cx="55.7086" cy="90.009" rx="0.981589" ry="1.73899" fill="#EBEBEB"/>
<ellipse cx="61.7895" cy="90.009" rx="0.981589" ry="1.73899" fill="#EBEBEB"/>
<ellipse cx="67.87" cy="90.009" rx="0.981589" ry="1.73899" fill="#EBEBEB"/>
<ellipse cx="73.9508" cy="90.009" rx="0.981589" ry="1.73899" fill="#EBEBEB"/>
<ellipse cx="80.0316" cy="90.009" rx="0.981589" ry="1.73899" fill="#EBEBEB"/>
<ellipse cx="86.1124" cy="90.009" rx="0.981589" ry="1.73899" fill="#EBEBEB"/>
<ellipse cx="92.1933" cy="90.009" rx="0.981589" ry="1.73899" fill="#EBEBEB"/>
<ellipse cx="98.2738" cy="90.009" rx="0.981589" ry="1.73899" fill="#EBEBEB"/>
<ellipse cx="104.355" cy="90.009" rx="0.981589" ry="1.73899" fill="#EBEBEB"/>
<ellipse cx="110.435" cy="90.009" rx="0.981589" ry="1.73899" fill="#EBEBEB"/>
<ellipse cx="116.516" cy="90.009" rx="0.981589" ry="1.73899" fill="#EBEBEB"/>
<ellipse cx="0.981589" cy="99.8052" rx="0.981589" ry="1.73899" fill="#EBEBEB"/>
<ellipse cx="7.0624" cy="99.8052" rx="0.981589" ry="1.73899" fill="#EBEBEB"/>
<ellipse cx="13.1432" cy="99.8052" rx="0.981589" ry="1.73899" fill="#EBEBEB"/>
<ellipse cx="19.2238" cy="99.8052" rx="0.981589" ry="1.73899" fill="#EBEBEB"/>
<ellipse cx="25.3048" cy="99.8052" rx="0.981589" ry="1.73899" fill="#EBEBEB"/>
<ellipse cx="31.3854" cy="99.8052" rx="0.981589" ry="1.73899" fill="#EBEBEB"/>
<ellipse cx="37.4662" cy="99.8052" rx="0.981589" ry="1.73899" fill="#EBEBEB"/>
<ellipse cx="43.547" cy="99.8052" rx="0.981589" ry="1.73899" fill="#EBEBEB"/>
<ellipse cx="49.6278" cy="99.8052" rx="0.981589" ry="1.73899" fill="#EBEBEB"/>
<ellipse cx="55.7086" cy="99.8052" rx="0.981589" ry="1.73899" fill="#EBEBEB"/>
<ellipse cx="61.7895" cy="99.8052" rx="0.981589" ry="1.73899" fill="#EBEBEB"/>
<ellipse cx="67.87" cy="99.8052" rx="0.981589" ry="1.73899" fill="#EBEBEB"/>
<ellipse cx="73.9508" cy="99.8052" rx="0.981589" ry="1.73899" fill="#EBEBEB"/>
<ellipse cx="80.0316" cy="99.8052" rx="0.981589" ry="1.73899" fill="#EBEBEB"/>
<ellipse cx="86.1124" cy="99.8052" rx="0.981589" ry="1.73899" fill="#EBEBEB"/>
<ellipse cx="92.1933" cy="99.8052" rx="0.981589" ry="1.73899" fill="#EBEBEB"/>
<ellipse cx="98.2738" cy="99.8052" rx="0.981589" ry="1.73899" fill="#EBEBEB"/>
<ellipse cx="104.355" cy="99.8052" rx="0.981589" ry="1.73899" fill="#EBEBEB"/>
<ellipse cx="110.435" cy="99.8052" rx="0.981589" ry="1.73899" fill="#EBEBEB"/>
<ellipse cx="116.516" cy="99.8052" rx="0.981589" ry="1.73899" fill="#EBEBEB"/>
<ellipse cx="0.981589" cy="109.601" rx="0.981589" ry="1.73899" fill="#EBEBEB"/>
<ellipse cx="7.0624" cy="109.601" rx="0.981589" ry="1.73899" fill="#EBEBEB"/>
<ellipse cx="13.1432" cy="109.601" rx="0.981589" ry="1.73899" fill="#EBEBEB"/>
<ellipse cx="19.2238" cy="109.601" rx="0.981589" ry="1.73899" fill="#EBEBEB"/>
<ellipse cx="25.3048" cy="109.601" rx="0.981589" ry="1.73899" fill="#EBEBEB"/>
<ellipse cx="31.3854" cy="109.601" rx="0.981589" ry="1.73899" fill="#EBEBEB"/>
<ellipse cx="37.4662" cy="109.601" rx="0.981589" ry="1.73899" fill="#EBEBEB"/>
<ellipse cx="43.547" cy="109.601" rx="0.981589" ry="1.73899" fill="#EBEBEB"/>
<ellipse cx="49.6278" cy="109.601" rx="0.981589" ry="1.73899" fill="#EBEBEB"/>
<ellipse cx="55.7086" cy="109.601" rx="0.981589" ry="1.73899" fill="#EBEBEB"/>
<ellipse cx="61.7895" cy="109.601" rx="0.981589" ry="1.73899" fill="#EBEBEB"/>
<ellipse cx="67.87" cy="109.601" rx="0.981589" ry="1.73899" fill="#EBEBEB"/>
<ellipse cx="73.9508" cy="109.601" rx="0.981589" ry="1.73899" fill="#EBEBEB"/>
<ellipse cx="80.0316" cy="109.601" rx="0.981589" ry="1.73899" fill="#EBEBEB"/>
<ellipse cx="86.1124" cy="109.601" rx="0.981589" ry="1.73899" fill="#EBEBEB"/>
<ellipse cx="92.1933" cy="109.601" rx="0.981589" ry="1.73899" fill="#EBEBEB"/>
<ellipse cx="98.2738" cy="109.601" rx="0.981589" ry="1.73899" fill="#EBEBEB"/>
<ellipse cx="104.355" cy="109.601" rx="0.981589" ry="1.73899" fill="#EBEBEB"/>
<ellipse cx="110.435" cy="109.601" rx="0.981589" ry="1.73899" fill="#EBEBEB"/>
<ellipse cx="116.516" cy="109.601" rx="0.981589" ry="1.73899" fill="#EBEBEB"/>
<ellipse cx="0.981589" cy="119.397" rx="0.981589" ry="1.73899" fill="#EBEBEB"/>
<ellipse cx="7.0624" cy="119.397" rx="0.981589" ry="1.73899" fill="#EBEBEB"/>
<ellipse cx="13.1432" cy="119.397" rx="0.981589" ry="1.73899" fill="#EBEBEB"/>
<ellipse cx="19.2238" cy="119.397" rx="0.981589" ry="1.73899" fill="#EBEBEB"/>
<ellipse cx="25.3048" cy="119.397" rx="0.981589" ry="1.73899" fill="#EBEBEB"/>
<ellipse cx="31.3854" cy="119.397" rx="0.981589" ry="1.73899" fill="#EBEBEB"/>
<ellipse cx="37.4662" cy="119.397" rx="0.981589" ry="1.73899" fill="#EBEBEB"/>
<ellipse cx="43.547" cy="119.397" rx="0.981589" ry="1.73899" fill="#EBEBEB"/>
<ellipse cx="49.6278" cy="119.397" rx="0.981589" ry="1.73899" fill="#EBEBEB"/>
<ellipse cx="55.7086" cy="119.397" rx="0.981589" ry="1.73899" fill="#EBEBEB"/>
<ellipse cx="61.7895" cy="119.397" rx="0.981589" ry="1.73899" fill="#EBEBEB"/>
<ellipse cx="67.87" cy="119.397" rx="0.981589" ry="1.73899" fill="#EBEBEB"/>
<ellipse cx="73.9508" cy="119.397" rx="0.981589" ry="1.73899" fill="#EBEBEB"/>
<ellipse cx="80.0316" cy="119.397" rx="0.981589" ry="1.73899" fill="#EBEBEB"/>
<ellipse cx="86.1124" cy="119.397" rx="0.981589" ry="1.73899" fill="#EBEBEB"/>
<ellipse cx="92.1933" cy="119.397" rx="0.981589" ry="1.73899" fill="#EBEBEB"/>
<ellipse cx="98.2738" cy="119.397" rx="0.981589" ry="1.73899" fill="#EBEBEB"/>
<ellipse cx="104.355" cy="119.397" rx="0.981589" ry="1.73899" fill="#EBEBEB"/>
<ellipse cx="110.435" cy="119.397" rx="0.981589" ry="1.73899" fill="#EBEBEB"/>
<ellipse cx="116.516" cy="119.397" rx="0.981589" ry="1.73899" fill="#EBEBEB"/>
<ellipse cx="0.981589" cy="129.193" rx="0.981589" ry="1.73899" fill="#EBEBEB"/>
<ellipse cx="7.0624" cy="129.193" rx="0.981589" ry="1.73899" fill="#EBEBEB"/>
<ellipse cx="13.1432" cy="129.193" rx="0.981589" ry="1.73899" fill="#EBEBEB"/>
<ellipse cx="19.2238" cy="129.193" rx="0.981589" ry="1.73899" fill="#EBEBEB"/>
<ellipse cx="25.3048" cy="129.193" rx="0.981589" ry="1.73899" fill="#EBEBEB"/>
<ellipse cx="31.3854" cy="129.193" rx="0.981589" ry="1.73899" fill="#EBEBEB"/>
<ellipse cx="37.4662" cy="129.193" rx="0.981589" ry="1.73899" fill="#EBEBEB"/>
<ellipse cx="43.547" cy="129.193" rx="0.981589" ry="1.73899" fill="#EBEBEB"/>
<ellipse cx="49.6278" cy="129.193" rx="0.981589" ry="1.73899" fill="#EBEBEB"/>
<ellipse cx="55.7086" cy="129.193" rx="0.981589" ry="1.73899" fill="#EBEBEB"/>
<ellipse cx="61.7895" cy="129.193" rx="0.981589" ry="1.73899" fill="#EBEBEB"/>
<ellipse cx="67.87" cy="129.193" rx="0.981589" ry="1.73899" fill="#EBEBEB"/>
<ellipse cx="73.9508" cy="129.193" rx="0.981589" ry="1.73899" fill="#EBEBEB"/>
<ellipse cx="80.0316" cy="129.193" rx="0.981589" ry="1.73899" fill="#EBEBEB"/>
<ellipse cx="86.1124" cy="129.193" rx="0.981589" ry="1.73899" fill="#EBEBEB"/>
<ellipse cx="92.1933" cy="129.193" rx="0.981589" ry="1.73899" fill="#EBEBEB"/>
<ellipse cx="98.2738" cy="129.193" rx="0.981589" ry="1.73899" fill="#EBEBEB"/>
<ellipse cx="104.355" cy="129.193" rx="0.981589" ry="1.73899" fill="#EBEBEB"/>
<ellipse cx="110.435" cy="129.193" rx="0.981589" ry="1.73899" fill="#EBEBEB"/>
<ellipse cx="116.516" cy="129.193" rx="0.981589" ry="1.73899" fill="#EBEBEB"/>
<ellipse cx="0.981589" cy="138.989" rx="0.981589" ry="1.73899" fill="#EBEBEB"/>
<ellipse cx="7.0624" cy="138.989" rx="0.981589" ry="1.73899" fill="#EBEBEB"/>
<ellipse cx="13.1432" cy="138.989" rx="0.981589" ry="1.73899" fill="#EBEBEB"/>
<ellipse cx="19.2238" cy="138.989" rx="0.981589" ry="1.73899" fill="#EBEBEB"/>
<ellipse cx="25.3048" cy="138.989" rx="0.981589" ry="1.73899" fill="#EBEBEB"/>
<ellipse cx="31.3854" cy="138.989" rx="0.981589" ry="1.73899" fill="#EBEBEB"/>
<ellipse cx="37.4662" cy="138.989" rx="0.981589" ry="1.73899" fill="#EBEBEB"/>
<ellipse cx="43.547" cy="138.989" rx="0.981589" ry="1.73899" fill="#EBEBEB"/>
<ellipse cx="49.6278" cy="138.989" rx="0.981589" ry="1.73899" fill="#EBEBEB"/>
<ellipse cx="55.7086" cy="138.989" rx="0.981589" ry="1.73899" fill="#EBEBEB"/>
<ellipse cx="61.7895" cy="138.989" rx="0.981589" ry="1.73899" fill="#EBEBEB"/>
<ellipse cx="67.87" cy="138.989" rx="0.981589" ry="1.73899" fill="#EBEBEB"/>
<ellipse cx="73.9508" cy="138.989" rx="0.981589" ry="1.73899" fill="#EBEBEB"/>
<ellipse cx="80.0316" cy="138.989" rx="0.981589" ry="1.73899" fill="#EBEBEB"/>
<ellipse cx="86.1124" cy="138.989" rx="0.981589" ry="1.73899" fill="#EBEBEB"/>
<ellipse cx="92.1933" cy="138.989" rx="0.981589" ry="1.73899" fill="#EBEBEB"/>
<ellipse cx="98.2738" cy="138.989" rx="0.981589" ry="1.73899" fill="#EBEBEB"/>
<ellipse cx="104.355" cy="138.989" rx="0.981589" ry="1.73899" fill="#EBEBEB"/>
<ellipse cx="110.435" cy="138.989" rx="0.981589" ry="1.73899" fill="#EBEBEB"/>
<ellipse cx="116.516" cy="138.989" rx="0.981589" ry="1.73899" fill="#EBEBEB"/>
<ellipse cx="0.981589" cy="148.785" rx="0.981589" ry="1.73899" fill="#EBEBEB"/>
<ellipse cx="7.0624" cy="148.785" rx="0.981589" ry="1.73899" fill="#EBEBEB"/>
<ellipse cx="13.1432" cy="148.785" rx="0.981589" ry="1.73899" fill="#EBEBEB"/>
<ellipse cx="19.2238" cy="148.785" rx="0.981589" ry="1.73899" fill="#EBEBEB"/>
<ellipse cx="25.3048" cy="148.785" rx="0.981589" ry="1.73899" fill="#EBEBEB"/>
<ellipse cx="31.3854" cy="148.785" rx="0.981589" ry="1.73899" fill="#EBEBEB"/>
<ellipse cx="37.4662" cy="148.785" rx="0.981589" ry="1.73899" fill="#EBEBEB"/>
<ellipse cx="43.547" cy="148.785" rx="0.981589" ry="1.73899" fill="#EBEBEB"/>
<ellipse cx="49.6278" cy="148.785" rx="0.981589" ry="1.73899" fill="#EBEBEB"/>
<ellipse cx="55.7086" cy="148.785" rx="0.981589" ry="1.73899" fill="#EBEBEB"/>
<ellipse cx="61.7895" cy="148.785" rx="0.981589" ry="1.73899" fill="#EBEBEB"/>
<ellipse cx="67.87" cy="148.785" rx="0.981589" ry="1.73899" fill="#EBEBEB"/>
<ellipse cx="73.9508" cy="148.785" rx="0.981589" ry="1.73899" fill="#EBEBEB"/>
<ellipse cx="80.0316" cy="148.785" rx="0.981589" ry="1.73899" fill="#EBEBEB"/>
<ellipse cx="86.1124" cy="148.785" rx="0.981589" ry="1.73899" fill="#EBEBEB"/>
<ellipse cx="92.1933" cy="148.785" rx="0.981589" ry="1.73899" fill="#EBEBEB"/>
<ellipse cx="98.2738" cy="148.785" rx="0.981589" ry="1.73899" fill="#EBEBEB"/>
<ellipse cx="104.355" cy="148.785" rx="0.981589" ry="1.73899" fill="#EBEBEB"/>
<ellipse cx="110.435" cy="148.785" rx="0.981589" ry="1.73899" fill="#EBEBEB"/>
<ellipse cx="116.516" cy="148.785" rx="0.981589" ry="1.73899" fill="#EBEBEB"/>
</svg>
