<svg width="169" height="253" viewBox="0 0 169 253" fill="none" xmlns="http://www.w3.org/2000/svg">
<ellipse cx="1.94543" cy="2.49281" rx="1.40735" ry="2.42885" fill="#EBEBEB"/>
<ellipse cx="10.6636" cy="2.49257" rx="1.40735" ry="2.42885" fill="#EBEBEB"/>
<ellipse cx="19.382" cy="2.49257" rx="1.40735" ry="2.42885" fill="#EBEBEB"/>
<ellipse cx="28.1002" cy="2.49257" rx="1.40735" ry="2.42885" fill="#EBEBEB"/>
<ellipse cx="36.8185" cy="2.49257" rx="1.40735" ry="2.42885" fill="#EBEBEB"/>
<ellipse cx="45.5367" cy="2.49257" rx="1.40735" ry="2.42885" fill="#EBEBEB"/>
<ellipse cx="54.2551" cy="2.49257" rx="1.40735" ry="2.42885" fill="#EBEBEB"/>
<ellipse cx="62.9733" cy="2.49257" rx="1.40735" ry="2.42885" fill="#EBEBEB"/>
<ellipse cx="71.6917" cy="2.49257" rx="1.40735" ry="2.42885" fill="#EBEBEB"/>
<ellipse cx="80.4099" cy="2.49257" rx="1.40735" ry="2.42885" fill="#EBEBEB"/>
<ellipse cx="89.1281" cy="2.49257" rx="1.40735" ry="2.42885" fill="#EBEBEB"/>
<ellipse cx="97.8463" cy="2.49257" rx="1.40735" ry="2.42885" fill="#EBEBEB"/>
<ellipse cx="106.565" cy="2.49257" rx="1.40735" ry="2.42885" fill="#EBEBEB"/>
<ellipse cx="115.283" cy="2.49257" rx="1.40735" ry="2.42885" fill="#EBEBEB"/>
<ellipse cx="124.001" cy="2.49257" rx="1.40735" ry="2.42885" fill="#EBEBEB"/>
<ellipse cx="132.719" cy="2.49257" rx="1.40735" ry="2.42885" fill="#EBEBEB"/>
<ellipse cx="141.438" cy="2.49257" rx="1.40735" ry="2.42885" fill="#EBEBEB"/>
<ellipse cx="150.156" cy="2.49257" rx="1.40735" ry="2.42885" fill="#EBEBEB"/>
<ellipse cx="158.874" cy="2.49257" rx="1.40735" ry="2.42885" fill="#EBEBEB"/>
<ellipse cx="167.592" cy="2.49257" rx="1.40735" ry="2.42885" fill="#EBEBEB"/>
<ellipse cx="1.94555" cy="19.0315" rx="1.40735" ry="2.42885" fill="#EBEBEB"/>
<ellipse cx="10.6639" cy="19.0315" rx="1.40735" ry="2.42885" fill="#EBEBEB"/>
<ellipse cx="19.3822" cy="19.0315" rx="1.40735" ry="2.42885" fill="#EBEBEB"/>
<ellipse cx="28.1005" cy="19.0315" rx="1.40735" ry="2.42885" fill="#EBEBEB"/>
<ellipse cx="36.8187" cy="19.0315" rx="1.40735" ry="2.42885" fill="#EBEBEB"/>
<ellipse cx="45.5371" cy="19.0315" rx="1.40735" ry="2.42885" fill="#EBEBEB"/>
<ellipse cx="54.2552" cy="19.0315" rx="1.40735" ry="2.42885" fill="#EBEBEB"/>
<ellipse cx="62.9736" cy="19.0315" rx="1.40735" ry="2.42885" fill="#EBEBEB"/>
<ellipse cx="71.6918" cy="19.0315" rx="1.40735" ry="2.42885" fill="#EBEBEB"/>
<ellipse cx="80.41" cy="19.0315" rx="1.40735" ry="2.42885" fill="#EBEBEB"/>
<ellipse cx="89.1284" cy="19.0315" rx="1.40735" ry="2.42885" fill="#EBEBEB"/>
<ellipse cx="97.8466" cy="19.0315" rx="1.40735" ry="2.42885" fill="#EBEBEB"/>
<ellipse cx="106.565" cy="19.0315" rx="1.40735" ry="2.42885" fill="#EBEBEB"/>
<ellipse cx="115.283" cy="19.0315" rx="1.40735" ry="2.42885" fill="#EBEBEB"/>
<ellipse cx="124.001" cy="19.0315" rx="1.40735" ry="2.42885" fill="#EBEBEB"/>
<ellipse cx="132.72" cy="19.0315" rx="1.40735" ry="2.42885" fill="#EBEBEB"/>
<ellipse cx="141.438" cy="19.0315" rx="1.40735" ry="2.42885" fill="#EBEBEB"/>
<ellipse cx="150.156" cy="19.0315" rx="1.40735" ry="2.42885" fill="#EBEBEB"/>
<ellipse cx="158.874" cy="19.0315" rx="1.40735" ry="2.42885" fill="#EBEBEB"/>
<ellipse cx="167.593" cy="19.0315" rx="1.40735" ry="2.42885" fill="#EBEBEB"/>
<ellipse cx="1.94555" cy="35.57" rx="1.40735" ry="2.42885" fill="#EBEBEB"/>
<ellipse cx="10.6639" cy="35.57" rx="1.40735" ry="2.42885" fill="#EBEBEB"/>
<ellipse cx="19.3822" cy="35.57" rx="1.40735" ry="2.42885" fill="#EBEBEB"/>
<ellipse cx="28.1005" cy="35.57" rx="1.40735" ry="2.42885" fill="#EBEBEB"/>
<ellipse cx="36.8187" cy="35.57" rx="1.40735" ry="2.42885" fill="#EBEBEB"/>
<ellipse cx="45.5371" cy="35.57" rx="1.40735" ry="2.42885" fill="#EBEBEB"/>
<ellipse cx="54.2552" cy="35.57" rx="1.40735" ry="2.42885" fill="#EBEBEB"/>
<ellipse cx="62.9736" cy="35.57" rx="1.40735" ry="2.42885" fill="#EBEBEB"/>
<ellipse cx="71.6918" cy="35.57" rx="1.40735" ry="2.42885" fill="#EBEBEB"/>
<ellipse cx="80.41" cy="35.57" rx="1.40735" ry="2.42885" fill="#EBEBEB"/>
<ellipse cx="89.1284" cy="35.57" rx="1.40735" ry="2.42885" fill="#EBEBEB"/>
<ellipse cx="97.8466" cy="35.57" rx="1.40735" ry="2.42885" fill="#EBEBEB"/>
<ellipse cx="106.565" cy="35.57" rx="1.40735" ry="2.42885" fill="#EBEBEB"/>
<ellipse cx="115.283" cy="35.57" rx="1.40735" ry="2.42885" fill="#EBEBEB"/>
<ellipse cx="124.001" cy="35.57" rx="1.40735" ry="2.42885" fill="#EBEBEB"/>
<ellipse cx="132.72" cy="35.57" rx="1.40735" ry="2.42885" fill="#EBEBEB"/>
<ellipse cx="141.438" cy="35.57" rx="1.40735" ry="2.42885" fill="#EBEBEB"/>
<ellipse cx="150.156" cy="35.57" rx="1.40735" ry="2.42885" fill="#EBEBEB"/>
<ellipse cx="158.874" cy="35.57" rx="1.40735" ry="2.42885" fill="#EBEBEB"/>
<ellipse cx="167.593" cy="35.57" rx="1.40735" ry="2.42885" fill="#EBEBEB"/>
<ellipse cx="1.94555" cy="52.1085" rx="1.40735" ry="2.42885" fill="#EBEBEB"/>
<ellipse cx="10.6639" cy="52.1085" rx="1.40735" ry="2.42885" fill="#EBEBEB"/>
<ellipse cx="19.3822" cy="52.1085" rx="1.40735" ry="2.42885" fill="#EBEBEB"/>
<ellipse cx="28.1005" cy="52.1085" rx="1.40735" ry="2.42885" fill="#EBEBEB"/>
<ellipse cx="36.8187" cy="52.1085" rx="1.40735" ry="2.42885" fill="#EBEBEB"/>
<ellipse cx="45.5371" cy="52.1085" rx="1.40735" ry="2.42885" fill="#EBEBEB"/>
<ellipse cx="54.2552" cy="52.1085" rx="1.40735" ry="2.42885" fill="#EBEBEB"/>
<ellipse cx="62.9736" cy="52.1085" rx="1.40735" ry="2.42885" fill="#EBEBEB"/>
<ellipse cx="71.6918" cy="52.1085" rx="1.40735" ry="2.42885" fill="#EBEBEB"/>
<ellipse cx="80.41" cy="52.1085" rx="1.40735" ry="2.42885" fill="#EBEBEB"/>
<ellipse cx="89.1284" cy="52.1085" rx="1.40735" ry="2.42885" fill="#EBEBEB"/>
<ellipse cx="97.8466" cy="52.1085" rx="1.40735" ry="2.42885" fill="#EBEBEB"/>
<ellipse cx="106.565" cy="52.1085" rx="1.40735" ry="2.42885" fill="#EBEBEB"/>
<ellipse cx="115.283" cy="52.1085" rx="1.40735" ry="2.42885" fill="#EBEBEB"/>
<ellipse cx="124.001" cy="52.1085" rx="1.40735" ry="2.42885" fill="#EBEBEB"/>
<ellipse cx="132.72" cy="52.1085" rx="1.40735" ry="2.42885" fill="#EBEBEB"/>
<ellipse cx="141.438" cy="52.1085" rx="1.40735" ry="2.42885" fill="#EBEBEB"/>
<ellipse cx="150.156" cy="52.1085" rx="1.40735" ry="2.42885" fill="#EBEBEB"/>
<ellipse cx="158.874" cy="52.1085" rx="1.40735" ry="2.42885" fill="#EBEBEB"/>
<ellipse cx="167.593" cy="52.1085" rx="1.40735" ry="2.42885" fill="#EBEBEB"/>
<ellipse cx="1.94555" cy="68.647" rx="1.40735" ry="2.42885" fill="#EBEBEB"/>
<ellipse cx="10.6639" cy="68.647" rx="1.40735" ry="2.42885" fill="#EBEBEB"/>
<ellipse cx="19.3822" cy="68.647" rx="1.40735" ry="2.42885" fill="#EBEBEB"/>
<ellipse cx="28.1005" cy="68.647" rx="1.40735" ry="2.42885" fill="#EBEBEB"/>
<ellipse cx="36.8187" cy="68.647" rx="1.40735" ry="2.42885" fill="#EBEBEB"/>
<ellipse cx="45.5371" cy="68.647" rx="1.40735" ry="2.42885" fill="#EBEBEB"/>
<ellipse cx="54.2552" cy="68.647" rx="1.40735" ry="2.42885" fill="#EBEBEB"/>
<ellipse cx="62.9736" cy="68.647" rx="1.40735" ry="2.42885" fill="#EBEBEB"/>
<ellipse cx="71.6918" cy="68.647" rx="1.40735" ry="2.42885" fill="#EBEBEB"/>
<ellipse cx="80.41" cy="68.647" rx="1.40735" ry="2.42885" fill="#EBEBEB"/>
<ellipse cx="89.1284" cy="68.647" rx="1.40735" ry="2.42885" fill="#EBEBEB"/>
<ellipse cx="97.8466" cy="68.647" rx="1.40735" ry="2.42885" fill="#EBEBEB"/>
<ellipse cx="106.565" cy="68.647" rx="1.40735" ry="2.42885" fill="#EBEBEB"/>
<ellipse cx="115.283" cy="68.647" rx="1.40735" ry="2.42885" fill="#EBEBEB"/>
<ellipse cx="124.001" cy="68.647" rx="1.40735" ry="2.42885" fill="#EBEBEB"/>
<ellipse cx="132.72" cy="68.647" rx="1.40735" ry="2.42885" fill="#EBEBEB"/>
<ellipse cx="141.438" cy="68.647" rx="1.40735" ry="2.42885" fill="#EBEBEB"/>
<ellipse cx="150.156" cy="68.647" rx="1.40735" ry="2.42885" fill="#EBEBEB"/>
<ellipse cx="158.874" cy="68.647" rx="1.40735" ry="2.42885" fill="#EBEBEB"/>
<ellipse cx="167.593" cy="68.647" rx="1.40735" ry="2.42885" fill="#EBEBEB"/>
<ellipse cx="1.94555" cy="85.1857" rx="1.40735" ry="2.42885" fill="#EBEBEB"/>
<ellipse cx="10.6639" cy="85.1857" rx="1.40735" ry="2.42885" fill="#EBEBEB"/>
<ellipse cx="19.3822" cy="85.1857" rx="1.40735" ry="2.42885" fill="#EBEBEB"/>
<ellipse cx="28.1005" cy="85.1857" rx="1.40735" ry="2.42885" fill="#EBEBEB"/>
<ellipse cx="36.8187" cy="85.1857" rx="1.40735" ry="2.42885" fill="#EBEBEB"/>
<ellipse cx="45.5371" cy="85.1857" rx="1.40735" ry="2.42885" fill="#EBEBEB"/>
<ellipse cx="54.2552" cy="85.1857" rx="1.40735" ry="2.42885" fill="#EBEBEB"/>
<ellipse cx="62.9736" cy="85.1857" rx="1.40735" ry="2.42885" fill="#EBEBEB"/>
<ellipse cx="71.6918" cy="85.1857" rx="1.40735" ry="2.42885" fill="#EBEBEB"/>
<ellipse cx="80.41" cy="85.1857" rx="1.40735" ry="2.42885" fill="#EBEBEB"/>
<ellipse cx="89.1284" cy="85.1857" rx="1.40735" ry="2.42885" fill="#EBEBEB"/>
<ellipse cx="97.8466" cy="85.1857" rx="1.40735" ry="2.42885" fill="#EBEBEB"/>
<ellipse cx="106.565" cy="85.1857" rx="1.40735" ry="2.42885" fill="#EBEBEB"/>
<ellipse cx="115.283" cy="85.1857" rx="1.40735" ry="2.42885" fill="#EBEBEB"/>
<ellipse cx="124.001" cy="85.1857" rx="1.40735" ry="2.42885" fill="#EBEBEB"/>
<ellipse cx="132.72" cy="85.1857" rx="1.40735" ry="2.42885" fill="#EBEBEB"/>
<ellipse cx="141.438" cy="85.1857" rx="1.40735" ry="2.42885" fill="#EBEBEB"/>
<ellipse cx="150.156" cy="85.1857" rx="1.40735" ry="2.42885" fill="#EBEBEB"/>
<ellipse cx="158.874" cy="85.1857" rx="1.40735" ry="2.42885" fill="#EBEBEB"/>
<ellipse cx="167.593" cy="85.1857" rx="1.40735" ry="2.42885" fill="#EBEBEB"/>
<ellipse cx="1.94555" cy="101.724" rx="1.40735" ry="2.42885" fill="#EBEBEB"/>
<ellipse cx="10.6639" cy="101.724" rx="1.40735" ry="2.42885" fill="#EBEBEB"/>
<ellipse cx="19.3822" cy="101.724" rx="1.40735" ry="2.42885" fill="#EBEBEB"/>
<ellipse cx="28.1005" cy="101.724" rx="1.40735" ry="2.42885" fill="#EBEBEB"/>
<ellipse cx="36.8187" cy="101.724" rx="1.40735" ry="2.42885" fill="#EBEBEB"/>
<ellipse cx="45.5371" cy="101.724" rx="1.40735" ry="2.42885" fill="#EBEBEB"/>
<ellipse cx="54.2552" cy="101.724" rx="1.40735" ry="2.42885" fill="#EBEBEB"/>
<ellipse cx="62.9736" cy="101.724" rx="1.40735" ry="2.42885" fill="#EBEBEB"/>
<ellipse cx="71.6918" cy="101.724" rx="1.40735" ry="2.42885" fill="#EBEBEB"/>
<ellipse cx="80.41" cy="101.724" rx="1.40735" ry="2.42885" fill="#EBEBEB"/>
<ellipse cx="89.1284" cy="101.724" rx="1.40735" ry="2.42885" fill="#EBEBEB"/>
<ellipse cx="97.8466" cy="101.724" rx="1.40735" ry="2.42885" fill="#EBEBEB"/>
<ellipse cx="106.565" cy="101.724" rx="1.40735" ry="2.42885" fill="#EBEBEB"/>
<ellipse cx="115.283" cy="101.724" rx="1.40735" ry="2.42885" fill="#EBEBEB"/>
<ellipse cx="124.001" cy="101.724" rx="1.40735" ry="2.42885" fill="#EBEBEB"/>
<ellipse cx="132.72" cy="101.724" rx="1.40735" ry="2.42885" fill="#EBEBEB"/>
<ellipse cx="141.438" cy="101.724" rx="1.40735" ry="2.42885" fill="#EBEBEB"/>
<ellipse cx="150.156" cy="101.724" rx="1.40735" ry="2.42885" fill="#EBEBEB"/>
<ellipse cx="158.874" cy="101.724" rx="1.40735" ry="2.42885" fill="#EBEBEB"/>
<ellipse cx="167.593" cy="101.724" rx="1.40735" ry="2.42885" fill="#EBEBEB"/>
<ellipse cx="1.94555" cy="118.263" rx="1.40735" ry="2.42885" fill="#EBEBEB"/>
<ellipse cx="10.6639" cy="118.263" rx="1.40735" ry="2.42885" fill="#EBEBEB"/>
<ellipse cx="19.3822" cy="118.263" rx="1.40735" ry="2.42885" fill="#EBEBEB"/>
<ellipse cx="28.1005" cy="118.263" rx="1.40735" ry="2.42885" fill="#EBEBEB"/>
<ellipse cx="36.8187" cy="118.263" rx="1.40735" ry="2.42885" fill="#EBEBEB"/>
<ellipse cx="45.5371" cy="118.263" rx="1.40735" ry="2.42885" fill="#EBEBEB"/>
<ellipse cx="54.2552" cy="118.263" rx="1.40735" ry="2.42885" fill="#EBEBEB"/>
<ellipse cx="62.9736" cy="118.263" rx="1.40735" ry="2.42885" fill="#EBEBEB"/>
<ellipse cx="71.6918" cy="118.263" rx="1.40735" ry="2.42885" fill="#EBEBEB"/>
<ellipse cx="80.41" cy="118.263" rx="1.40735" ry="2.42885" fill="#EBEBEB"/>
<ellipse cx="89.1284" cy="118.263" rx="1.40735" ry="2.42885" fill="#EBEBEB"/>
<ellipse cx="97.8466" cy="118.263" rx="1.40735" ry="2.42885" fill="#EBEBEB"/>
<ellipse cx="106.565" cy="118.263" rx="1.40735" ry="2.42885" fill="#EBEBEB"/>
<ellipse cx="115.283" cy="118.263" rx="1.40735" ry="2.42885" fill="#EBEBEB"/>
<ellipse cx="124.001" cy="118.263" rx="1.40735" ry="2.42885" fill="#EBEBEB"/>
<ellipse cx="132.72" cy="118.263" rx="1.40735" ry="2.42885" fill="#EBEBEB"/>
<ellipse cx="141.438" cy="118.263" rx="1.40735" ry="2.42885" fill="#EBEBEB"/>
<ellipse cx="150.156" cy="118.263" rx="1.40735" ry="2.42885" fill="#EBEBEB"/>
<ellipse cx="158.874" cy="118.263" rx="1.40735" ry="2.42885" fill="#EBEBEB"/>
<ellipse cx="167.593" cy="118.263" rx="1.40735" ry="2.42885" fill="#EBEBEB"/>
<ellipse cx="1.94555" cy="134.801" rx="1.40735" ry="2.42885" fill="#EBEBEB"/>
<ellipse cx="10.6639" cy="134.801" rx="1.40735" ry="2.42885" fill="#EBEBEB"/>
<ellipse cx="19.3822" cy="134.801" rx="1.40735" ry="2.42885" fill="#EBEBEB"/>
<ellipse cx="28.1005" cy="134.801" rx="1.40735" ry="2.42885" fill="#EBEBEB"/>
<ellipse cx="36.8187" cy="134.801" rx="1.40735" ry="2.42885" fill="#EBEBEB"/>
<ellipse cx="45.5371" cy="134.801" rx="1.40735" ry="2.42885" fill="#EBEBEB"/>
<ellipse cx="54.2552" cy="134.801" rx="1.40735" ry="2.42885" fill="#EBEBEB"/>
<ellipse cx="62.9736" cy="134.801" rx="1.40735" ry="2.42885" fill="#EBEBEB"/>
<ellipse cx="71.6918" cy="134.801" rx="1.40735" ry="2.42885" fill="#EBEBEB"/>
<ellipse cx="80.41" cy="134.801" rx="1.40735" ry="2.42885" fill="#EBEBEB"/>
<ellipse cx="89.1284" cy="134.801" rx="1.40735" ry="2.42885" fill="#EBEBEB"/>
<ellipse cx="97.8466" cy="134.801" rx="1.40735" ry="2.42885" fill="#EBEBEB"/>
<ellipse cx="106.565" cy="134.801" rx="1.40735" ry="2.42885" fill="#EBEBEB"/>
<ellipse cx="115.283" cy="134.801" rx="1.40735" ry="2.42885" fill="#EBEBEB"/>
<ellipse cx="124.001" cy="134.801" rx="1.40735" ry="2.42885" fill="#EBEBEB"/>
<ellipse cx="132.72" cy="134.801" rx="1.40735" ry="2.42885" fill="#EBEBEB"/>
<ellipse cx="141.438" cy="134.801" rx="1.40735" ry="2.42885" fill="#EBEBEB"/>
<ellipse cx="150.156" cy="134.801" rx="1.40735" ry="2.42885" fill="#EBEBEB"/>
<ellipse cx="158.874" cy="134.801" rx="1.40735" ry="2.42885" fill="#EBEBEB"/>
<ellipse cx="167.593" cy="134.801" rx="1.40735" ry="2.42885" fill="#EBEBEB"/>
<ellipse cx="1.94555" cy="151.34" rx="1.40735" ry="2.42885" fill="#EBEBEB"/>
<ellipse cx="10.6639" cy="151.34" rx="1.40735" ry="2.42885" fill="#EBEBEB"/>
<ellipse cx="19.3822" cy="151.34" rx="1.40735" ry="2.42885" fill="#EBEBEB"/>
<ellipse cx="28.1005" cy="151.34" rx="1.40735" ry="2.42885" fill="#EBEBEB"/>
<ellipse cx="36.8187" cy="151.34" rx="1.40735" ry="2.42885" fill="#EBEBEB"/>
<ellipse cx="45.5371" cy="151.34" rx="1.40735" ry="2.42885" fill="#EBEBEB"/>
<ellipse cx="54.2552" cy="151.34" rx="1.40735" ry="2.42885" fill="#EBEBEB"/>
<ellipse cx="62.9736" cy="151.34" rx="1.40735" ry="2.42885" fill="#EBEBEB"/>
<ellipse cx="71.6918" cy="151.34" rx="1.40735" ry="2.42885" fill="#EBEBEB"/>
<ellipse cx="80.41" cy="151.34" rx="1.40735" ry="2.42885" fill="#EBEBEB"/>
<ellipse cx="89.1284" cy="151.34" rx="1.40735" ry="2.42885" fill="#EBEBEB"/>
<ellipse cx="97.8466" cy="151.34" rx="1.40735" ry="2.42885" fill="#EBEBEB"/>
<ellipse cx="106.565" cy="151.34" rx="1.40735" ry="2.42885" fill="#EBEBEB"/>
<ellipse cx="115.283" cy="151.34" rx="1.40735" ry="2.42885" fill="#EBEBEB"/>
<ellipse cx="124.001" cy="151.34" rx="1.40735" ry="2.42885" fill="#EBEBEB"/>
<ellipse cx="132.72" cy="151.34" rx="1.40735" ry="2.42885" fill="#EBEBEB"/>
<ellipse cx="141.438" cy="151.34" rx="1.40735" ry="2.42885" fill="#EBEBEB"/>
<ellipse cx="150.156" cy="151.34" rx="1.40735" ry="2.42885" fill="#EBEBEB"/>
<ellipse cx="158.874" cy="151.34" rx="1.40735" ry="2.42885" fill="#EBEBEB"/>
<ellipse cx="167.593" cy="151.34" rx="1.40735" ry="2.42885" fill="#EBEBEB"/>
<ellipse cx="1.94555" cy="167.878" rx="1.40735" ry="2.42885" fill="#EBEBEB"/>
<ellipse cx="10.6639" cy="167.878" rx="1.40735" ry="2.42885" fill="#EBEBEB"/>
<ellipse cx="19.3822" cy="167.878" rx="1.40735" ry="2.42885" fill="#EBEBEB"/>
<ellipse cx="28.1005" cy="167.878" rx="1.40735" ry="2.42885" fill="#EBEBEB"/>
<ellipse cx="36.8187" cy="167.878" rx="1.40735" ry="2.42885" fill="#EBEBEB"/>
<ellipse cx="45.5371" cy="167.878" rx="1.40735" ry="2.42885" fill="#EBEBEB"/>
<ellipse cx="54.2552" cy="167.878" rx="1.40735" ry="2.42885" fill="#EBEBEB"/>
<ellipse cx="62.9736" cy="167.878" rx="1.40735" ry="2.42885" fill="#EBEBEB"/>
<ellipse cx="71.6918" cy="167.878" rx="1.40735" ry="2.42885" fill="#EBEBEB"/>
<ellipse cx="80.41" cy="167.878" rx="1.40735" ry="2.42885" fill="#EBEBEB"/>
<ellipse cx="89.1284" cy="167.878" rx="1.40735" ry="2.42885" fill="#EBEBEB"/>
<ellipse cx="97.8466" cy="167.878" rx="1.40735" ry="2.42885" fill="#EBEBEB"/>
<ellipse cx="106.565" cy="167.878" rx="1.40735" ry="2.42885" fill="#EBEBEB"/>
<ellipse cx="115.283" cy="167.878" rx="1.40735" ry="2.42885" fill="#EBEBEB"/>
<ellipse cx="124.001" cy="167.878" rx="1.40735" ry="2.42885" fill="#EBEBEB"/>
<ellipse cx="132.72" cy="167.878" rx="1.40735" ry="2.42885" fill="#EBEBEB"/>
<ellipse cx="141.438" cy="167.878" rx="1.40735" ry="2.42885" fill="#EBEBEB"/>
<ellipse cx="150.156" cy="167.878" rx="1.40735" ry="2.42885" fill="#EBEBEB"/>
<ellipse cx="158.874" cy="167.878" rx="1.40735" ry="2.42885" fill="#EBEBEB"/>
<ellipse cx="167.593" cy="167.878" rx="1.40735" ry="2.42885" fill="#EBEBEB"/>
<ellipse cx="1.94555" cy="184.417" rx="1.40735" ry="2.42885" fill="#EBEBEB"/>
<ellipse cx="10.6639" cy="184.417" rx="1.40735" ry="2.42885" fill="#EBEBEB"/>
<ellipse cx="19.3822" cy="184.417" rx="1.40735" ry="2.42885" fill="#EBEBEB"/>
<ellipse cx="28.1005" cy="184.417" rx="1.40735" ry="2.42885" fill="#EBEBEB"/>
<ellipse cx="36.8187" cy="184.417" rx="1.40735" ry="2.42885" fill="#EBEBEB"/>
<ellipse cx="45.5371" cy="184.417" rx="1.40735" ry="2.42885" fill="#EBEBEB"/>
<ellipse cx="54.2552" cy="184.417" rx="1.40735" ry="2.42885" fill="#EBEBEB"/>
<ellipse cx="62.9736" cy="184.417" rx="1.40735" ry="2.42885" fill="#EBEBEB"/>
<ellipse cx="71.6918" cy="184.417" rx="1.40735" ry="2.42885" fill="#EBEBEB"/>
<ellipse cx="80.41" cy="184.417" rx="1.40735" ry="2.42885" fill="#EBEBEB"/>
<ellipse cx="89.1284" cy="184.417" rx="1.40735" ry="2.42885" fill="#EBEBEB"/>
<ellipse cx="97.8466" cy="184.417" rx="1.40735" ry="2.42885" fill="#EBEBEB"/>
<ellipse cx="106.565" cy="184.417" rx="1.40735" ry="2.42885" fill="#EBEBEB"/>
<ellipse cx="115.283" cy="184.417" rx="1.40735" ry="2.42885" fill="#EBEBEB"/>
<ellipse cx="124.001" cy="184.417" rx="1.40735" ry="2.42885" fill="#EBEBEB"/>
<ellipse cx="132.72" cy="184.417" rx="1.40735" ry="2.42885" fill="#EBEBEB"/>
<ellipse cx="141.438" cy="184.417" rx="1.40735" ry="2.42885" fill="#EBEBEB"/>
<ellipse cx="150.156" cy="184.417" rx="1.40735" ry="2.42885" fill="#EBEBEB"/>
<ellipse cx="158.874" cy="184.417" rx="1.40735" ry="2.42885" fill="#EBEBEB"/>
<ellipse cx="167.593" cy="184.417" rx="1.40735" ry="2.42885" fill="#EBEBEB"/>
<ellipse cx="1.94555" cy="200.955" rx="1.40735" ry="2.42885" fill="#EBEBEB"/>
<ellipse cx="10.6639" cy="200.955" rx="1.40735" ry="2.42885" fill="#EBEBEB"/>
<ellipse cx="19.3822" cy="200.955" rx="1.40735" ry="2.42885" fill="#EBEBEB"/>
<ellipse cx="28.1005" cy="200.955" rx="1.40735" ry="2.42885" fill="#EBEBEB"/>
<ellipse cx="36.8187" cy="200.955" rx="1.40735" ry="2.42885" fill="#EBEBEB"/>
<ellipse cx="45.5371" cy="200.955" rx="1.40735" ry="2.42885" fill="#EBEBEB"/>
<ellipse cx="54.2552" cy="200.955" rx="1.40735" ry="2.42885" fill="#EBEBEB"/>
<ellipse cx="62.9736" cy="200.955" rx="1.40735" ry="2.42885" fill="#EBEBEB"/>
<ellipse cx="71.6918" cy="200.955" rx="1.40735" ry="2.42885" fill="#EBEBEB"/>
<ellipse cx="80.41" cy="200.955" rx="1.40735" ry="2.42885" fill="#EBEBEB"/>
<ellipse cx="89.1284" cy="200.955" rx="1.40735" ry="2.42885" fill="#EBEBEB"/>
<ellipse cx="97.8466" cy="200.955" rx="1.40735" ry="2.42885" fill="#EBEBEB"/>
<ellipse cx="106.565" cy="200.955" rx="1.40735" ry="2.42885" fill="#EBEBEB"/>
<ellipse cx="115.283" cy="200.955" rx="1.40735" ry="2.42885" fill="#EBEBEB"/>
<ellipse cx="124.001" cy="200.955" rx="1.40735" ry="2.42885" fill="#EBEBEB"/>
<ellipse cx="132.72" cy="200.955" rx="1.40735" ry="2.42885" fill="#EBEBEB"/>
<ellipse cx="141.438" cy="200.955" rx="1.40735" ry="2.42885" fill="#EBEBEB"/>
<ellipse cx="150.156" cy="200.955" rx="1.40735" ry="2.42885" fill="#EBEBEB"/>
<ellipse cx="158.874" cy="200.955" rx="1.40735" ry="2.42885" fill="#EBEBEB"/>
<ellipse cx="167.593" cy="200.955" rx="1.40735" ry="2.42885" fill="#EBEBEB"/>
<ellipse cx="1.94555" cy="217.494" rx="1.40735" ry="2.42885" fill="#EBEBEB"/>
<ellipse cx="10.6639" cy="217.494" rx="1.40735" ry="2.42885" fill="#EBEBEB"/>
<ellipse cx="19.3822" cy="217.494" rx="1.40735" ry="2.42885" fill="#EBEBEB"/>
<ellipse cx="28.1005" cy="217.494" rx="1.40735" ry="2.42885" fill="#EBEBEB"/>
<ellipse cx="36.8187" cy="217.494" rx="1.40735" ry="2.42885" fill="#EBEBEB"/>
<ellipse cx="45.5371" cy="217.494" rx="1.40735" ry="2.42885" fill="#EBEBEB"/>
<ellipse cx="54.2552" cy="217.494" rx="1.40735" ry="2.42885" fill="#EBEBEB"/>
<ellipse cx="62.9736" cy="217.494" rx="1.40735" ry="2.42885" fill="#EBEBEB"/>
<ellipse cx="71.6918" cy="217.494" rx="1.40735" ry="2.42885" fill="#EBEBEB"/>
<ellipse cx="80.41" cy="217.494" rx="1.40735" ry="2.42885" fill="#EBEBEB"/>
<ellipse cx="89.1284" cy="217.494" rx="1.40735" ry="2.42885" fill="#EBEBEB"/>
<ellipse cx="97.8466" cy="217.494" rx="1.40735" ry="2.42885" fill="#EBEBEB"/>
<ellipse cx="106.565" cy="217.494" rx="1.40735" ry="2.42885" fill="#EBEBEB"/>
<ellipse cx="115.283" cy="217.494" rx="1.40735" ry="2.42885" fill="#EBEBEB"/>
<ellipse cx="124.001" cy="217.494" rx="1.40735" ry="2.42885" fill="#EBEBEB"/>
<ellipse cx="132.72" cy="217.494" rx="1.40735" ry="2.42885" fill="#EBEBEB"/>
<ellipse cx="141.438" cy="217.494" rx="1.40735" ry="2.42885" fill="#EBEBEB"/>
<ellipse cx="150.156" cy="217.494" rx="1.40735" ry="2.42885" fill="#EBEBEB"/>
<ellipse cx="158.874" cy="217.494" rx="1.40735" ry="2.42885" fill="#EBEBEB"/>
<ellipse cx="167.593" cy="217.494" rx="1.40735" ry="2.42885" fill="#EBEBEB"/>
<ellipse cx="1.94555" cy="234.033" rx="1.40735" ry="2.42885" fill="#EBEBEB"/>
<ellipse cx="10.6639" cy="234.032" rx="1.40735" ry="2.42885" fill="#EBEBEB"/>
<ellipse cx="19.3822" cy="234.032" rx="1.40735" ry="2.42885" fill="#EBEBEB"/>
<ellipse cx="28.1005" cy="234.032" rx="1.40735" ry="2.42885" fill="#EBEBEB"/>
<ellipse cx="36.8187" cy="234.032" rx="1.40735" ry="2.42885" fill="#EBEBEB"/>
<ellipse cx="45.5371" cy="234.032" rx="1.40735" ry="2.42885" fill="#EBEBEB"/>
<ellipse cx="54.2552" cy="234.032" rx="1.40735" ry="2.42885" fill="#EBEBEB"/>
<ellipse cx="62.9736" cy="234.032" rx="1.40735" ry="2.42885" fill="#EBEBEB"/>
<ellipse cx="71.6918" cy="234.032" rx="1.40735" ry="2.42885" fill="#EBEBEB"/>
<ellipse cx="80.41" cy="234.032" rx="1.40735" ry="2.42885" fill="#EBEBEB"/>
<ellipse cx="89.1284" cy="234.032" rx="1.40735" ry="2.42885" fill="#EBEBEB"/>
<ellipse cx="97.8466" cy="234.032" rx="1.40735" ry="2.42885" fill="#EBEBEB"/>
<ellipse cx="106.565" cy="234.032" rx="1.40735" ry="2.42885" fill="#EBEBEB"/>
<ellipse cx="115.283" cy="234.032" rx="1.40735" ry="2.42885" fill="#EBEBEB"/>
<ellipse cx="124.001" cy="234.032" rx="1.40735" ry="2.42885" fill="#EBEBEB"/>
<ellipse cx="132.72" cy="234.032" rx="1.40735" ry="2.42885" fill="#EBEBEB"/>
<ellipse cx="141.438" cy="234.032" rx="1.40735" ry="2.42885" fill="#EBEBEB"/>
<ellipse cx="150.156" cy="234.032" rx="1.40735" ry="2.42885" fill="#EBEBEB"/>
<ellipse cx="158.874" cy="234.032" rx="1.40735" ry="2.42885" fill="#EBEBEB"/>
<ellipse cx="167.593" cy="234.032" rx="1.40735" ry="2.42885" fill="#EBEBEB"/>
<ellipse cx="1.94555" cy="250.571" rx="1.40735" ry="2.42885" fill="#EBEBEB"/>
<ellipse cx="10.6639" cy="250.571" rx="1.40735" ry="2.42885" fill="#EBEBEB"/>
<ellipse cx="19.3822" cy="250.571" rx="1.40735" ry="2.42885" fill="#EBEBEB"/>
<ellipse cx="28.1005" cy="250.571" rx="1.40735" ry="2.42885" fill="#EBEBEB"/>
<ellipse cx="36.8187" cy="250.571" rx="1.40735" ry="2.42885" fill="#EBEBEB"/>
<ellipse cx="45.5371" cy="250.571" rx="1.40735" ry="2.42885" fill="#EBEBEB"/>
<ellipse cx="54.2552" cy="250.571" rx="1.40735" ry="2.42885" fill="#EBEBEB"/>
<ellipse cx="62.9736" cy="250.571" rx="1.40735" ry="2.42885" fill="#EBEBEB"/>
<ellipse cx="71.6918" cy="250.571" rx="1.40735" ry="2.42885" fill="#EBEBEB"/>
<ellipse cx="80.41" cy="250.571" rx="1.40735" ry="2.42885" fill="#EBEBEB"/>
<ellipse cx="89.1284" cy="250.571" rx="1.40735" ry="2.42885" fill="#EBEBEB"/>
<ellipse cx="97.8466" cy="250.571" rx="1.40735" ry="2.42885" fill="#EBEBEB"/>
<ellipse cx="106.565" cy="250.571" rx="1.40735" ry="2.42885" fill="#EBEBEB"/>
<ellipse cx="115.283" cy="250.571" rx="1.40735" ry="2.42885" fill="#EBEBEB"/>
<ellipse cx="124.001" cy="250.571" rx="1.40735" ry="2.42885" fill="#EBEBEB"/>
<ellipse cx="132.72" cy="250.571" rx="1.40735" ry="2.42885" fill="#EBEBEB"/>
<ellipse cx="141.438" cy="250.571" rx="1.40735" ry="2.42885" fill="#EBEBEB"/>
<ellipse cx="150.156" cy="250.571" rx="1.40735" ry="2.42885" fill="#EBEBEB"/>
<ellipse cx="158.874" cy="250.571" rx="1.40735" ry="2.42885" fill="#EBEBEB"/>
<ellipse cx="167.593" cy="250.571" rx="1.40735" ry="2.42885" fill="#EBEBEB"/>
</svg>
